<?xml version="1.0" encoding="utf-8"?>
<!-- Generator: Adobe Illustrator 25.2.0, SVG Export Plug-In . SVG Version: 6.00 Build 0)  -->
<svg version="1.1" id="Layer_1" xmlns="http://www.w3.org/2000/svg" xmlns:xlink="http://www.w3.org/1999/xlink" x="0px" y="0px"
	 viewBox="0 0 291 259" style="enable-background:new 0 0 291 259;" xml:space="preserve">
<style type="text/css">
	.st0{fill:#1E00FF;}
	.st1{fill:#FFFFFF;}
	.st2{fill:#231F20;}
</style>
<g>
	<path class="st0" d="M140.4,19.9L16.1,240.4H275L140.4,19.9z M141.2,47.5l109.6,180.3H39L141.2,47.5z"/>
	<path class="st0" d="M198.6,138.8c-58.5-32.8-121.5,5.4-121.5,5.4L62.9,168l6.2,6.7c30.5,35.6,80.8,31.7,80.8,31.7
		c47.9,0,68.3-32.1,68.3-32.1l2-2.8L198.6,138.8z M141.6,195.6c0,0-47.3-5-66.4-31.6c0,0,29.6-27.9,72.1-26.3
		c0,0,36.5-0.7,60.6,27.5C207.9,165.2,198.6,193,141.6,195.6z"/>
	<circle class="st0" cx="145.5" cy="166" r="35.8"/>
	<polygon class="st1" points="125.5,185.8 132.1,185.8 136.5,163.1 144.3,186.4 146.8,186.4 154.9,163.1 159.1,186.4 165.5,186.4 
		157.7,145.7 154,145.7 145.5,171.9 137.3,145.7 133.2,145.7 	"/>
	<g>
		<path class="st1" d="M96.7,143.8c-0.5-0.9-1.1-2-1.6-2.9l0,0c0.2,1,0.4,2.1,0.6,3.1l0.6,3.6l-1,0.5l-2.5-2.5
			c-0.7-0.8-1.5-1.6-2.1-2.4l0,0c0.4,0.9,1,2.1,1.4,3.1l1.3,2.9l-1.2,0.6l-3.2-7.3l1.7-0.9l2.4,2.4c0.7,0.7,1.3,1.4,1.9,2.1l0,0
			c-0.2-0.9-0.4-1.9-0.6-2.8l-0.5-3.3l1.7-0.9l4.1,6.9l-1.3,0.7L96.7,143.8z"/>
		<path class="st1" d="M101.8,142.6l0.3,2.3l-1.4,0.6l-0.8-8.3l1.7-0.7l5.5,6.3l-1.4,0.6l-1.5-1.8L101.8,142.6z M103.4,140.7
			l-1.3-1.6c-0.3-0.4-0.7-0.8-1-1.2l0,0c0.1,0.5,0.2,1,0.2,1.5l0.2,2L103.4,140.7z"/>
		<path class="st1" d="M109.2,142l-1.1-3.1l-3.9-3.5l1.6-0.6l1.6,1.6c0.5,0.5,0.8,0.8,1.2,1.3l0,0c0-0.5,0.1-1.1,0.1-1.7l0.2-2.2
			l1.5-0.6l-0.9,5.2l1.1,3.2L109.2,142z"/>
		<path class="st1" d="M114.1,138l0,2.4l-1.4,0.4l0.2-8.4l1.8-0.5l4.7,6.9l-1.5,0.4l-1.3-2L114.1,138z M116,136.3l-1.2-1.7
			c-0.3-0.4-0.6-0.9-0.8-1.3l0,0c0,0.5,0.1,1,0.1,1.5l0,2.1L116,136.3z"/>
		<path class="st1" d="M124.7,135.3l-0.3,2.3l-1.5,0.3l1-8.3l1.8-0.3l4,7.3l-1.5,0.3l-1.1-2.1L124.7,135.3z M126.7,133.7l-1-1.8
			c-0.2-0.4-0.5-1-0.7-1.4l0,0c0,0.5,0,1-0.1,1.5l-0.2,2L126.7,133.7z"/>
		<path class="st1" d="M136.7,135.5c-0.3,0.2-1,0.5-2,0.6c-2.5,0.3-4.2-1.1-4.5-3.5c-0.3-2.6,1.3-4.4,3.7-4.7c0.9-0.1,1.7,0,2,0.1
			l-0.2,1.2c-0.4-0.1-0.9-0.2-1.6-0.1c-1.6,0.2-2.6,1.3-2.4,3.2c0.2,1.7,1.3,2.7,3.1,2.5c0.6-0.1,1.2-0.3,1.5-0.5L136.7,135.5z"/>
		<path class="st1" d="M143.6,135.2c-0.3,0.2-1.1,0.4-2,0.4c-2.5,0.1-4.1-1.4-4.2-3.8c-0.1-2.6,1.6-4.3,4.1-4.4c1,0,1.6,0.1,1.9,0.3
			l-0.3,1.2c-0.4-0.1-0.9-0.3-1.6-0.2c-1.6,0.1-2.7,1.1-2.7,3.1c0.1,1.7,1.1,2.8,2.9,2.8c0.6,0,1.2-0.2,1.6-0.4L143.6,135.2z"/>
		<path class="st1" d="M152.1,131.6c-0.1,2.7-1.8,4.1-4,4c-2.2-0.1-3.6-1.9-3.5-4.2c0.1-2.4,1.7-4.1,3.9-4
			C150.9,127.5,152.2,129.4,152.1,131.6z M146.1,131.5c-0.1,1.6,0.7,2.9,2.1,3c1.4,0.1,2.2-1.2,2.3-2.9c0.1-1.5-0.6-2.9-2.1-3
			C147,128.6,146.2,129.9,146.1,131.5z"/>
		<path class="st1" d="M155.9,128.1l-0.6,4.6c-0.2,1.5,0.4,2.3,1.3,2.5c1,0.1,1.8-0.5,2-2l0.6-4.6l1.4,0.2l-0.6,4.5
			c-0.3,2.4-1.7,3.4-3.6,3.1c-1.8-0.2-2.9-1.4-2.6-3.9l0.6-4.5L155.9,128.1z"/>
		<path class="st1" d="M161.5,137l1.7-7.8l1.6,0.4l1.3,3.8c0.3,1,0.6,2,0.7,2.9l0,0c0.1-1.1,0.3-2.1,0.6-3.3l0.6-2.7l1.3,0.3
			l-1.7,7.8l-1.5-0.3l-1.3-3.9c-0.3-1-0.6-2-0.8-3l0,0c-0.2,1-0.4,2-0.7,3.3l-0.6,2.8L161.5,137z"/>
		<path class="st1" d="M173,132.9l-2.2-0.7l0.4-1.2l5.7,1.8l-0.4,1.2l-2.2-0.7l-2,6.5l-1.4-0.4L173,132.9z"/>
		<path class="st1" d="M179.9,134l-2.7,7.5l-1.4-0.5l2.7-7.5L179.9,134z"/>
		<path class="st1" d="M179.1,142.1l3.2-7.3l1.5,0.7l0.5,4c0.1,1,0.2,2.1,0.2,3l0,0c0.3-1,0.7-2,1.2-3.1l1.1-2.5l1.2,0.5l-3.2,7.3
			l-1.4-0.6l-0.5-4c-0.1-1-0.2-2.1-0.2-3.1l0,0c-0.4,1-0.8,1.9-1.3,3.1l-1.1,2.6L179.1,142.1z"/>
		<path class="st1" d="M192.4,148.2c-0.5-0.1-1.5-0.3-2.5-0.8c-1.2-0.6-1.9-1.4-2.2-2.4c-0.3-0.9-0.2-2.1,0.4-3.1
			c1.2-2.2,3.5-2.8,5.8-1.5c0.9,0.5,1.4,1,1.7,1.3l-0.8,0.9c-0.3-0.4-0.7-0.8-1.4-1.2c-1.5-0.8-3-0.5-3.9,1.2
			c-0.9,1.6-0.4,3.1,1.1,3.8c0.5,0.2,0.8,0.4,1,0.4l0.9-1.7l-1.2-0.7l0.5-1l2.5,1.3L192.4,148.2z"/>
	</g>
	<g>
		<path class="st1" d="M102.3,191.8c-1.1,2.4-3.2,3.1-5.2,2.1c-2-0.9-2.6-3.1-1.6-5.2c1-2.2,3.2-3.1,5.2-2.1
			C102.8,187.7,103.2,189.8,102.3,191.8z M96.9,189.4c-0.7,1.4-0.5,2.9,0.8,3.5c1.3,0.6,2.5-0.2,3.2-1.7c0.6-1.3,0.6-2.9-0.7-3.5
			C98.8,187.1,97.6,188,96.9,189.4z"/>
		<path class="st1" d="M102.6,196.3l2.8-7.4l1.5,0.6l0.7,3.9c0.2,1,0.3,2,0.3,2.9l0,0c0.3-1,0.6-2,1-3.1l1-2.6l1.3,0.5l-2.8,7.4
			l-1.4-0.5l-0.7-3.9c-0.2-1-0.3-2.1-0.4-3l0,0c-0.3,1-0.7,1.9-1.1,3.2l-1,2.6L102.6,196.3z"/>
		<path class="st1" d="M113.1,191.6l1.4,0.4l-1.9,6.4l3.1,0.9l-0.3,1.2l-4.5-1.3L113.1,191.6z"/>
		<path class="st1" d="M120.4,193.6l-1.9,7.6l-1.4-0.3l1.9-7.6L120.4,193.6z"/>
		<path class="st1" d="M120.8,201.8l1.5-7.7l1.6,0.3l1.4,3.7c0.4,1,0.6,1.9,0.8,2.8l0,0c0.1-1,0.3-2,0.5-3.2l0.5-2.7l1.3,0.3
			L127,203l-1.5-0.3l-1.4-3.8c-0.3-0.9-0.7-2-0.9-2.9l0,0c-0.1,1-0.3,2-0.6,3.3l-0.5,2.8L120.8,201.8z"/>
		<path class="st1" d="M134.3,200.5l-3-0.4l-0.3,2.3l3.3,0.4l-0.2,1.2l-4.8-0.6l1.1-7.8l4.6,0.6l-0.2,1.2l-3.1-0.4l-0.3,2l3,0.4
			L134.3,200.5z"/>
		<path class="st1" d="M140.6,197.9l-2.3-0.2l0.1-1.2l6,0.4l-0.1,1.2l-2.3-0.2l-0.5,6.6l-1.4-0.1L140.6,197.9z"/>
		<path class="st1" d="M145.5,197.1c0.5-0.1,1.4-0.2,2.2-0.2c1.1,0,1.9,0.2,2.5,0.6c0.4,0.4,0.7,0.9,0.7,1.6c0,1-0.7,1.7-1.4,2v0
			c0.6,0.2,0.9,0.7,1.1,1.5c0.3,1,0.5,1.9,0.7,2.2l-1.5,0c-0.1-0.2-0.3-0.9-0.6-1.8c-0.2-1-0.6-1.3-1.4-1.3l-0.7,0l0.1,3.2l-1.4,0
			L145.5,197.1z M147,200.6l0.9,0c1,0,1.6-0.5,1.6-1.3c0-0.9-0.6-1.2-1.6-1.2c-0.5,0-0.8,0-0.9,0.1L147,200.6z"/>
		<path class="st1" d="M154.7,202.3l-0.5,2.3l-1.5,0.1l1.8-8.1l1.8-0.2l3.3,7.6l-1.5,0.1l-0.9-2.1L154.7,202.3z M156.9,201l-0.8-1.9
			c-0.2-0.5-0.4-1-0.5-1.4l0,0c-0.1,0.5-0.1,1-0.2,1.5l-0.4,2L156.9,201z"/>
		<path class="st1" d="M161.7,195.8l1.2,7.8l-1.4,0.2l-1.2-7.8L161.7,195.8z"/>
		<path class="st1" d="M165.3,203.1l-1.6-7.7l1.6-0.3l2.7,2.9c0.7,0.7,1.3,1.5,1.9,2.3l0,0c-0.3-1-0.6-2-0.8-3.2l-0.6-2.7l1.3-0.3
			l1.6,7.7l-1.5,0.3l-2.8-2.9c-0.7-0.7-1.4-1.6-2-2.4l0,0c0.3,1,0.5,2,0.8,3.3l0.6,2.7L165.3,203.1z"/>
		<path class="st1" d="M173.1,193.3l2.1,7.6l-1.4,0.4l-2.1-7.6L173.1,193.3z"/>
		<path class="st1" d="M177.6,200.2l-2.6-7.4l1.6-0.5l3.1,2.5c0.8,0.7,1.5,1.4,2.2,2l0,0c-0.4-1-0.8-1.9-1.2-3l-0.9-2.6l1.3-0.4
			l2.6,7.4l-1.4,0.5l-3.1-2.6c-0.8-0.7-1.6-1.4-2.2-2.1l0,0c0.4,0.9,0.7,1.9,1.2,3.1l0.9,2.7L177.6,200.2z"/>
		<path class="st1" d="M191.6,194.2c-0.4,0.4-1.2,1-2.1,1.5c-1.2,0.6-2.3,0.7-3.3,0.3c-0.9-0.3-1.7-1.1-2.2-2.2
			c-1.1-2.2-0.1-4.4,2.3-5.5c0.9-0.4,1.7-0.5,2.1-0.5l0.2,1.2c-0.5,0-1,0.1-1.8,0.4c-1.5,0.7-2.2,2.1-1.4,3.8
			c0.8,1.6,2.2,2.1,3.7,1.4c0.5-0.2,0.8-0.4,0.9-0.6l-0.8-1.8l-1.3,0.6l-0.5-1l2.5-1.2L191.6,194.2z"/>
	</g>
	<g>
		<path class="st2" d="M172.7,20.8c-6,0-10.9,4.9-10.9,10.9s4.9,10.9,10.9,10.9c6,0,10.9-4.9,10.9-10.9S178.7,20.8,172.7,20.8z
			 M172.7,40c-4.6,0-8.4-3.7-8.4-8.4s3.7-8.4,8.4-8.4c4.6,0,8.4,3.7,8.4,8.4S177.3,40,172.7,40z"/>
		<g>
			<path d="M169.6,26.3c0.7-0.1,1.7-0.2,2.7-0.2c1.4,0,2.3,0.2,3,0.8c0.5,0.4,0.8,1.1,0.8,1.9c0,1.2-0.8,2.1-1.8,2.4v0
				c0.7,0.3,1.1,0.9,1.3,1.9c0.3,1.2,0.6,2.3,0.8,2.7h-1.8c-0.1-0.3-0.4-1.1-0.6-2.3c-0.3-1.3-0.7-1.7-1.7-1.7h-0.9v4h-1.8V26.3z
				 M171.4,30.6h1c1.2,0,1.9-0.6,1.9-1.6c0-1.1-0.7-1.6-1.9-1.6c-0.6,0-0.9,0-1.1,0.1V30.6z"/>
		</g>
	</g>
</g>
</svg>
